<svg width="579" height="102" viewBox="0 0 579 102" fill="none" xmlns="http://www.w3.org/2000/svg">
<path d="M577.204 4.224C577.756 4.224 578.204 4.67171 578.204 5.224V74.264C578.204 74.8163 577.756 75.264 577.204 75.264H565.764C565.212 75.264 564.764 74.8163 564.764 74.264V5.224C564.764 4.67172 565.212 4.224 565.764 4.224H577.204Z" fill="#111111"/>
<path d="M504.005 48.48C504.005 43.104 505.062 38.336 507.174 34.176C509.35 30.016 512.261 26.816 515.909 24.576C519.621 22.336 523.75 21.216 528.294 21.216C532.262 21.216 535.717 22.016 538.661 23.616C540.667 24.6826 542.402 25.9342 543.867 27.3706C544.556 28.0464 545.862 27.5864 545.862 26.6211V23.08C545.862 22.5277 546.309 22.08 546.862 22.08H558.398C558.95 22.08 559.398 22.5277 559.398 23.08V74.264C559.398 74.8163 558.95 75.264 558.398 75.264H546.862C546.309 75.264 545.862 74.8163 545.862 74.264V70.6893C545.862 69.7089 544.505 69.2478 543.813 69.9427C542.382 71.3813 540.664 72.6431 538.661 73.728C535.653 75.328 532.166 76.128 528.198 76.128C523.718 76.128 519.621 74.976 515.909 72.672C512.261 70.368 509.35 67.136 507.174 62.976C505.062 58.752 504.005 53.92 504.005 48.48ZM545.862 48.672C545.862 45.408 545.221 42.624 543.941 40.32C542.661 37.952 540.934 36.16 538.758 34.944C536.582 33.664 534.246 33.024 531.75 33.024C529.254 33.024 526.95 33.632 524.838 34.848C522.726 36.064 520.998 37.856 519.654 40.224C518.374 42.528 517.734 45.28 517.734 48.48C517.734 51.68 518.374 54.496 519.654 56.928C520.998 59.296 522.726 61.12 524.838 62.4C527.014 63.68 529.318 64.32 531.75 64.32C534.246 64.32 536.582 63.712 538.758 62.496C540.934 61.216 542.661 59.424 543.941 57.12C545.221 54.752 545.862 51.936 545.862 48.672Z" fill="#111111"/>
<path d="M458.599 26.5871C458.599 27.5736 459.974 28.0324 460.664 27.3282C462.076 25.8895 463.755 24.6521 465.703 23.616C468.775 22.016 472.263 21.216 476.167 21.216C480.711 21.216 484.807 22.336 488.455 24.576C492.167 26.816 495.079 30.016 497.191 34.176C499.367 38.272 500.455 43.04 500.455 48.48C500.455 53.92 499.367 58.752 497.191 62.976C495.079 67.136 492.167 70.368 488.455 72.672C484.807 74.976 480.711 76.128 476.167 76.128C472.199 76.128 468.711 75.36 465.703 73.824C463.75 72.7627 462.051 71.5044 460.605 70.0489C459.92 69.3596 458.599 69.8159 458.599 70.7875V74.264C458.599 74.8163 458.151 75.264 457.599 75.264H446.159C445.607 75.264 445.159 74.8163 445.159 74.264V5.224C445.159 4.67172 445.607 4.224 446.159 4.224H457.599C458.151 4.224 458.599 4.67171 458.599 5.224V26.5871ZM486.727 48.48C486.727 45.28 486.055 42.528 484.711 40.224C483.431 37.856 481.703 36.064 479.527 34.848C477.415 33.632 475.111 33.024 472.615 33.024C470.183 33.024 467.879 33.664 465.703 34.944C463.591 36.16 461.863 37.952 460.519 40.32C459.239 42.688 458.599 45.472 458.599 48.672C458.599 51.872 459.239 54.656 460.519 57.024C461.863 59.392 463.591 61.216 465.703 62.496C467.879 63.712 470.183 64.32 472.615 64.32C475.111 64.32 477.415 63.68 479.527 62.4C481.703 61.12 483.431 59.296 484.711 56.928C486.055 54.56 486.727 51.744 486.727 48.48Z" fill="#111111"/>
<path d="M414.316 76.128C409.196 76.128 404.588 75.008 400.492 72.768C396.396 70.464 393.164 67.232 390.796 63.072C388.492 58.912 387.34 54.112 387.34 48.672C387.34 43.232 388.524 38.432 390.892 34.272C393.324 30.112 396.62 26.912 400.78 24.672C404.94 22.368 409.58 21.216 414.7 21.216C419.82 21.216 424.46 22.368 428.62 24.672C432.78 26.912 436.044 30.112 438.412 34.272C440.844 38.432 442.06 43.232 442.06 48.672C442.06 54.112 440.812 58.912 438.316 63.072C435.884 67.232 432.556 70.464 428.332 72.768C424.172 75.008 419.5 76.128 414.316 76.128ZM414.316 64.416C416.748 64.416 419.02 63.84 421.132 62.688C423.308 61.472 425.036 59.68 426.316 57.312C427.596 54.944 428.236 52.064 428.236 48.672C428.236 43.616 426.892 39.744 424.204 37.056C421.58 34.304 418.348 32.928 414.508 32.928C410.668 32.928 407.436 34.304 404.812 37.056C402.252 39.744 400.972 43.616 400.972 48.672C400.972 53.728 402.22 57.632 404.716 60.384C407.276 63.072 410.476 64.416 414.316 64.416Z" fill="#111111"/>
<path d="M382.181 4.224C382.734 4.224 383.181 4.67171 383.181 5.224V74.264C383.181 74.8163 382.734 75.264 382.181 75.264H370.741C370.189 75.264 369.741 74.8163 369.741 74.264V5.224C369.741 4.67172 370.189 4.224 370.741 4.224H382.181Z" fill="#111111"/>
<path d="M331.271 21.216C335.239 21.216 338.727 22.016 341.735 23.616C343.688 24.6133 345.371 25.8129 346.785 27.2148C347.481 27.9052 348.839 27.4431 348.839 26.4627V23.08C348.839 22.5277 349.287 22.08 349.839 22.08H361.375C361.927 22.08 362.375 22.5277 362.375 23.08V75.648C362.375 80.576 361.383 84.96 359.399 88.8C357.415 92.704 354.439 95.776 350.471 98.016C346.503 100.32 341.703 101.472 336.071 101.472C328.519 101.472 322.311 99.712 317.447 96.192C312.941 92.8874 310.268 88.4547 309.428 82.8939C309.339 82.3068 309.804 81.792 310.398 81.792H321.879C322.325 81.792 322.711 82.0884 322.866 82.5058C323.644 84.6027 325.069 86.2847 327.143 87.552C329.511 89.024 332.359 89.76 335.687 89.76C339.591 89.76 342.759 88.576 345.191 86.208C347.623 83.904 348.839 80.384 348.839 75.648V70.5933C348.839 69.6129 347.482 69.1518 346.791 69.8467C345.359 71.2853 343.642 72.5471 341.639 73.632C338.631 75.296 335.175 76.128 331.271 76.128C326.791 76.128 322.695 74.976 318.983 72.672C315.271 70.368 312.327 67.136 310.151 62.976C308.039 58.752 306.983 53.92 306.983 48.48C306.983 43.104 308.039 38.336 310.151 34.176C312.327 30.016 315.239 26.816 318.887 24.576C322.599 22.336 326.727 21.216 331.271 21.216ZM348.839 48.672C348.839 45.408 348.199 42.624 346.919 40.32C345.639 37.952 343.911 36.16 341.735 34.944C339.559 33.664 337.223 33.024 334.727 33.024C332.231 33.024 329.927 33.632 327.815 34.848C325.703 36.064 323.975 37.856 322.631 40.224C321.351 42.528 320.711 45.28 320.711 48.48C320.711 51.68 321.351 54.496 322.631 56.928C323.975 59.296 325.703 61.12 327.815 62.4C329.991 63.68 332.295 64.32 334.727 64.32C337.223 64.32 339.559 63.712 341.735 62.496C343.911 61.216 345.639 59.424 346.919 57.12C348.199 54.752 348.839 51.936 348.839 48.672Z" fill="#111111"/>
<path d="M283.181 15.744C280.813 15.744 278.829 15.008 277.229 13.536C275.693 12 274.925 10.112 274.925 7.872C274.925 5.632 275.693 3.776 277.229 2.304C278.829 0.767998 280.813 0 283.181 0C285.549 0 287.501 0.767998 289.037 2.304C290.637 3.776 291.437 5.632 291.437 7.872C291.437 10.112 290.637 12 289.037 13.536C287.501 15.008 285.549 15.744 283.181 15.744ZM288.805 22.08C289.358 22.08 289.805 22.5277 289.805 23.08V74.264C289.805 74.8163 289.358 75.264 288.805 75.264H277.365C276.813 75.264 276.365 74.8163 276.365 74.264V23.08C276.365 22.5277 276.813 22.08 277.365 22.08H288.805Z" fill="#111111"/>
<path d="M214.607 48.48C214.607 43.104 215.663 38.336 217.775 34.176C219.951 30.016 222.863 26.816 226.511 24.576C230.223 22.336 234.351 21.216 238.895 21.216C242.863 21.216 246.319 22.016 249.263 23.616C251.268 24.6826 253.003 25.9342 254.468 27.3705C255.157 28.0464 256.463 27.5864 256.463 26.6211V23.08C256.463 22.5277 256.91 22.08 257.463 22.08H268.999C269.551 22.08 269.999 22.5277 269.999 23.08V74.264C269.999 74.8163 269.551 75.264 268.999 75.264H257.463C256.91 75.264 256.463 74.8163 256.463 74.264V70.6893C256.463 69.7089 255.106 69.2478 254.415 69.9427C252.983 71.3813 251.266 72.6431 249.263 73.728C246.255 75.328 242.767 76.128 238.799 76.128C234.319 76.128 230.223 74.976 226.511 72.672C222.863 70.368 219.951 67.136 217.775 62.976C215.663 58.752 214.607 53.92 214.607 48.48ZM256.463 48.672C256.463 45.408 255.823 42.624 254.543 40.32C253.263 37.952 251.535 36.16 249.359 34.944C247.183 33.664 244.847 33.024 242.351 33.024C239.855 33.024 237.551 33.632 235.439 34.848C233.327 36.064 231.599 37.856 230.255 40.224C228.975 42.528 228.335 45.28 228.335 48.48C228.335 51.68 228.975 54.496 230.255 56.928C231.599 59.296 233.327 61.12 235.439 62.4C237.615 63.68 239.919 64.32 242.351 64.32C244.847 64.32 247.183 63.712 249.359 62.496C251.535 61.216 253.263 59.424 254.543 57.12C255.823 54.752 256.463 51.936 256.463 48.672Z" fill="#111111"/>
<path d="M188.277 21.312C194.805 21.312 200.053 23.328 204.021 27.36C208.053 31.328 210.069 36.896 210.069 44.064V74.264C210.069 74.8163 209.621 75.264 209.069 75.264H197.629C197.077 75.264 196.629 74.8163 196.629 74.264V45.888C196.629 41.728 195.573 38.56 193.461 36.384C191.349 34.144 188.469 33.024 184.821 33.024C181.173 33.024 178.261 34.144 176.085 36.384C173.973 38.56 172.917 41.728 172.917 45.888V74.264C172.917 74.8163 172.469 75.264 171.917 75.264H160.477C159.925 75.264 159.477 74.8163 159.477 74.264V45.888C159.477 41.728 158.421 38.56 156.309 36.384C154.197 34.144 151.317 33.024 147.669 33.024C143.957 33.024 141.013 34.144 138.837 36.384C136.725 38.56 135.669 41.728 135.669 45.888V74.264C135.669 74.8163 135.221 75.264 134.669 75.264H123.229C122.677 75.264 122.229 74.8163 122.229 74.264V23.08C122.229 22.5277 122.677 22.08 123.229 22.08H134.669C135.221 22.08 135.669 22.5277 135.669 23.08V25.5785C135.669 26.5327 136.945 26.997 137.646 26.3493C138.991 25.106 140.54 24.0669 142.293 23.232C145.045 21.952 148.053 21.312 151.317 21.312C155.477 21.312 159.189 22.208 162.453 24C165.184 25.4461 167.401 27.43 169.101 29.9517C169.54 30.6021 170.544 30.6077 170.992 29.9637C172.642 27.5901 174.82 25.6342 177.525 24.096C180.853 22.24 184.437 21.312 188.277 21.312Z" fill="#111111"/>
<path d="M60.4705 48.48C60.4705 43.104 61.5265 38.336 63.6385 34.176C65.8145 30.016 68.7265 26.816 72.3745 24.576C76.0865 22.336 80.2145 21.216 84.7585 21.216C88.7265 21.216 92.1825 22.016 95.1265 23.616C97.1318 24.6826 98.8668 25.9342 100.332 27.3706C101.021 28.0464 102.326 27.5864 102.326 26.6211V23.08C102.326 22.5277 102.774 22.08 103.326 22.08H114.862C115.415 22.08 115.862 22.5277 115.862 23.08V74.264C115.862 74.8163 115.415 75.264 114.862 75.264H103.326C102.774 75.264 102.326 74.8163 102.326 74.264V70.6893C102.326 69.7089 100.97 69.2478 100.278 69.9427C98.8467 71.3813 97.1294 72.6431 95.1265 73.728C92.1185 75.328 88.6305 76.128 84.6625 76.128C80.1825 76.128 76.0865 74.976 72.3745 72.672C68.7265 70.368 65.8145 67.136 63.6385 62.976C61.5265 58.752 60.4705 53.92 60.4705 48.48ZM102.326 48.672C102.326 45.408 101.686 42.624 100.406 40.32C99.1265 37.952 97.3985 36.16 95.2225 34.944C93.0465 33.664 90.7105 33.024 88.2145 33.024C85.7185 33.024 83.4145 33.632 81.3025 34.848C79.1905 36.064 77.4625 37.856 76.1185 40.224C74.8385 42.528 74.1985 45.28 74.1985 48.48C74.1985 51.68 74.8385 54.496 76.1185 56.928C77.4625 59.296 79.1905 61.12 81.3025 62.4C83.4785 63.68 85.7825 64.32 88.2145 64.32C90.7105 64.32 93.0465 63.712 95.2225 62.496C97.3985 61.216 99.1265 59.424 100.406 57.12C101.686 54.752 102.326 51.936 102.326 48.672Z" fill="#111111"/>
<path d="M0.167999 48.48C0.167999 43.104 1.224 38.336 3.336 34.176C5.512 30.016 8.456 26.816 12.168 24.576C15.88 22.336 20.008 21.216 24.552 21.216C28.008 21.216 31.304 21.984 34.44 23.52C36.5627 24.5164 38.3921 25.7473 39.9284 27.2128C40.6252 27.8776 41.928 27.4144 41.928 26.4513V5.224C41.928 4.67171 42.3757 4.224 42.928 4.224H54.56C55.1123 4.224 55.56 4.67171 55.56 5.224V74.264C55.56 74.8163 55.1123 75.264 54.56 75.264H42.928C42.3757 75.264 41.928 74.8163 41.928 74.264V70.8362C41.928 69.8349 40.4982 69.3744 39.8037 70.0957C38.4424 71.5095 36.8145 72.7203 34.92 73.728C31.912 75.328 28.424 76.128 24.456 76.128C19.976 76.128 15.88 74.976 12.168 72.672C8.456 70.368 5.512 67.136 3.336 62.976C1.224 58.752 0.167999 53.92 0.167999 48.48ZM42.024 48.672C42.024 45.408 41.384 42.624 40.104 40.32C38.824 37.952 37.096 36.16 34.92 34.944C32.744 33.664 30.408 33.024 27.912 33.024C25.416 33.024 23.112 33.632 21 34.848C18.888 36.064 17.16 37.856 15.816 40.224C14.536 42.528 13.896 45.28 13.896 48.48C13.896 51.68 14.536 54.496 15.816 56.928C17.16 59.296 18.888 61.12 21 62.4C23.176 63.68 25.48 64.32 27.912 64.32C30.408 64.32 32.744 63.712 34.92 62.496C37.096 61.216 38.824 59.424 40.104 57.12C41.384 54.752 42.024 51.936 42.024 48.672Z" fill="#111111"/>
</svg>
